:SAMPLES-PER-SECOND 30
:FULLY-SPECIFIED
:DEGREES
330
root  34.82792772 36.50775519 -14.84605083 8.576353073 -6.42951107 3.666911125
lowerback  -8.508900642 -1.475080013 -1.04460001
upperback  -4.187829971 -1.404620051 -3.094389915
thorax  0.3838010132 -0.5283449888 -2.727999926
lowerneck  -12.14009953 -8.57695961 -7.10089016
upperneck  20.23609924 -11.7098999 8.271269798
head  9.286549568 -4.950409889 2.608870029
lclavicle  0 -4.497500157e-015 -2.743230041e-014
lhumerus  -49.59410095 30.02479935 63.06980133
lradius  0.007069340441 -6.507048965e-006 30.67340279
lwrist  4.824992743e-007 -3.790274832e-007 -28.00810051
lhand  -0 -36.74140167 -10.61260033
lfingers  90 7.125020027 -90
lthumb  94.72866131 -25.45513616 100.893747
rclavicle  0 -4.497500157e-015 -2.743230041e-014
rhumerus  -61.95149994 -29.26659966 -41.20840454
rradius  -5.16745672e-007 2.214343908e-008 102.8929977
rwrist  -2.867388866e-005 0.0111028729 -179.0119934
rhand  -1.773972787e-031 5.581369877 -7.289599895
rfingers  -90 -7.125020027 -90
rthumb  -84.66738218 -8.818441597 -58.66421958
rfemur  -12.8170414 16.07923889 12.62195969
rtibia  -1.152138233 -1.267683864 21.24600029
rfoot  0.2520569563 -22.59864807 -34.97401428
rtoes  4.023006265 19.60745799 -101.836841
lfemur  -8.210683823 -16.58370018 -20.53313828
ltibia  2.352280855 -1.32630682 14.95106888
lfoot  0.8056018949 -22.939991 37.88290405
ltoes  -8.521949191 -18.16118268 -115.6754873
331
root  34.8306761 36.51137765 -14.84674619 8.589969635 -6.457945824 3.661974907
lowerback  -8.499739647 -1.483299971 -1.011239648
upperback  -4.190239906 -1.419999957 -3.080519915
thorax  0.3751220107 -0.5370090008 -2.733469963
lowerneck  -12.21280003 -8.437459946 -7.039869785
upperneck  20.35230064 -11.5170002 8.235090256
head  9.317390442 -4.852079868 2.611500263
lclavicle  0 -4.497500157e-015 -2.743230041e-014
lhumerus  -49.54919815 29.9333992 63.20800018
lradius  0.007069340441 -6.507048965e-006 30.76659966
lwrist  4.824992743e-007 -3.790274832e-007 -27.7059021
lhand  -4.409350951e-031 -36.79090118 -10.59700012
lfingers  90 7.125020027 -90
lthumb  94.74855233 -25.43812581 100.9453354
rclavicle  0 -4.497500157e-015 -2.743230041e-014
rhumerus  -61.77539825 -29.36849976 -41.98609924
rradius  -5.16745672e-007 2.214343908e-008 101.3249969
rwrist  -2.867388866e-005 0.0111028729 -178.2440033
rhand  -1.773667807e-031 5.479629993 -7.469979763
rfingers  -90 -7.125020027 -90
rthumb  -84.78660565 -8.657537158 -58.77780028
rfemur  -12.82204151 16.04018593 12.61450386
rtibia  -1.147925258 -1.2824229 21.22176361
rfoot  0.2671189606 -22.61760712 -34.9291954
rtoes  4.019132651 19.60822237 -101.825298
lfemur  -8.301358223 -16.56008148 -20.49803162
ltibia  2.29372716 -1.336756706 15.06288242
lfoot  0.8060418963 -22.97984886 37.83459854
ltoes  -8.56908534 -18.13957707 -115.8268012
332
root  34.83319921 36.51104724 -14.84741752 8.611314774 -6.489923 3.659937143
lowerback  -8.500160217 -1.493199944 -1.005459666
upperback  -4.177440166 -1.436560035 -3.056299925
thorax  0.388448 -0.5463669896 -2.713160038
lowerneck  -12.31110001 -8.313630104 -6.969799995
upperneck  20.49329948 -11.35050106 8.21296978
head  9.364509583 -4.761760235 2.613110065
lclavicle  0 -4.497500157e-015 -2.743230041e-014
lhumerus  -49.50109863 29.88019943 63.3030014
lradius  0.007069340441 -6.507048965e-006 30.80290031
lwrist  4.824992743e-007 -3.790274832e-007 -27.62360001
lhand  -4.406155244e-031 -36.73529816 -10.62880039
lfingers  90 7.125020027 -90
lthumb  94.72919349 -25.47123695 100.8886753
rclavicle  0 -4.497500157e-015 -2.743230041e-014
rhumerus  -61.44879913 -29.31469917 -42.81209946
rradius  -5.16745672e-007 2.214343908e-008 99.6753006
rwrist  -2.867388866e-005 0.0111028729 -177.6710052
rhand  -1.773999677e-031 5.590250015 -7.348499775
rfingers  -90 -7.125020027 -90
rthumb  -84.69622623 -8.768715571 -58.66026416
rfemur  -12.85484505 16.02332497 12.5920105
rtibia  -1.141394258 -1.333880782 21.21743584
rfoot  0.3055403531 -22.70898247 -34.78927994
rtoes  4.007831029 19.61044811 -101.7916226
lfemur  -8.346087456 -16.56153297 -20.48327637
ltibia  2.270436525 -1.343859792 15.09439087
lfoot  0.8069344163 -22.9783268 37.8766098
ltoes  -8.56872881 -18.13974105 -115.8256561
333
root  34.83605873 36.51034438 -14.84779298 8.633641243 -6.533721447 3.655813932
lowerback  -8.509059906 -1.478459954 -0.9689815044
upperback  -4.161109924 -1.421939969 -3.047310114
thorax  0.4100790024 -0.5458540916 -2.723479986
lowerneck  -12.39120007 -8.202389717 -6.816999912
upperneck  20.59679985 -11.2010994 8.107629776
head  9.386340141 -4.684519768 2.571129799
lclavicle  0 -4.497500157e-015 -2.743230041e-014
lhumerus  -49.42300034 29.78569984 63.41279984
lradius  0.007069340441 -6.507048965e-006 30.7912941
lwrist  4.824992743e-007 -3.790274832e-007 -27.6215992
lhand  -4.40590283e-031 -36.73089981 -10.68789959
lfingers  90 7.125020027 -90
lthumb  94.73950072 -25.52942615 100.8892902
rclavicle  0 -4.497500157e-015 -2.743230041e-014
rhumerus  -61.18489838 -29.38240051 -43.56349945
rradius  -5.16745672e-007 2.214343908e-008 98.09680176
rwrist  -2.867388866e-005 0.0111028729 -177.1959991
rhand  -1.774297528e-031 5.687670231 -7.568950176
rfingers  -90 -7.125020027 -90
rthumb  -84.7888736 -8.587147255 -58.58279321
rfemur  -12.89290333 16.03410339 12.56797886
rtibia  -1.137438893 -1.342039227 21.22178268
rfoot  0.2927772403 -22.71840668 -34.79928207
rtoes  4.028300588 19.60641202 -101.8526183
lfemur  -8.363575935 -16.54796028 -20.48354149
ltibia  2.265292168 -1.34955132 15.08787441
lfoot  0.8081668615 -22.95882607 37.91410065
ltoes  -8.519483323 -18.16230886 -115.6675763
334
root  34.83926067 36.5101221 -14.84756169 8.647006035 -6.587964535 3.650970936
lowerback  -8.513620377 -1.475430131 -0.9620395303
upperback  -4.151229858 -1.420910001 -3.02583003
thorax  0.4232609868 -0.5410349965 -2.705229998
lowerneck  -12.49769974 -8.089220047 -6.737840176
upperneck  20.73539925 -11.0383997 8.019049644
head  9.430290222 -4.603680134 2.547509909
lclavicle  0 -4.497500157e-015 -2.743230041e-014
lhumerus  -49.38840103 29.72710037 63.48320007
lradius  0.007069340441 -6.507048965e-006 30.80087662
lwrist  4.824992743e-007 -3.790274832e-007 -27.65539932
lhand  -4.405151386e-031 -36.71780014 -10.72480011
lfingers  90 7.125020027 -90
lthumb  94.74111642 -25.56621247 100.8786579
rclavicle  0 -4.497500157e-015 -2.743230041e-014
rhumerus  -60.83840179 -29.52389908 -44.27149963
rradius  -5.16745672e-007 2.214343908e-008 96.29180145
rwrist  -2.867388866e-005 0.0111028729 -176.6679993
rhand  -1.775042532e-031 5.924220085 -7.610159874
rfingers  -90 -7.125020027 -90
rthumb  -84.75395879 -8.568310363 -58.35563334
rfemur  -12.92480659 16.06153297 12.56137085
rtibia  -1.131900072 -1.326719165 21.2373085
rfoot  0.293766737 -22.69523048 -34.77897263
rtoes  4.045141677 19.60307522 -101.9028109
lfemur  -8.355718613 -16.5510788 -20.49340248
ltibia  2.266402006 -1.353208899 15.07146263
lfoot  0.8096266985 -22.94474411 37.95749664
ltoes  -8.50423118 -18.16926565 -115.6186548
335
root  34.84335471 36.50837395 -14.84645633 8.61847496 -6.661686897 3.647345304
lowerback  -8.55768013 -1.465880156 -0.9644442797
upperback  -4.163499832 -1.406380057 -3.007750034
thorax  0.4359540045 -0.5331680179 -2.684760094
lowerneck  -12.54409981 -7.975409985 -6.676439762
upperneck  20.84420013 -10.88099861 7.980140209
head  9.45761013 -4.5229702 2.545300007
lclavicle  0 -4.497500157e-015 -2.743230041e-014
lhumerus  -49.40579987 29.7329998 63.49940109
lradius  0.007069340441 -6.507048965e-006 30.80700874
lwrist  4.824992743e-007 -3.790274832e-007 -27.73489952
lhand  -4.406941955e-031 -36.74900055 -10.71310043
lfingers  90 7.125020027 -90
lthumb  94.75329061 -25.55360982 100.9109449
rclavicle  0 -4.497500157e-015 -2.743230041e-014
rhumerus  -60.54810333 -29.64870071 -44.88459778
rradius  -5.16745672e-007 2.214343908e-008 94.47380066
rwrist  -2.867388866e-005 0.0111028729 -176.4530029
rhand  -3.550262549e-031 5.951759815 -7.67261982
rfingers  -90 -7.125020027 -90
rthumb  -84.78048671 -8.517052038 -58.33367559
rfemur  -12.89958954 16.09369469 12.55319214
rtibia  -1.118921518 -1.321795225 21.22388458
rfoot  0.3180314004 -22.69441223 -34.72081375
rtoes  4.064074663 19.59930653 -101.9592479
lfemur  -8.333080292 -16.56233978 -20.50088692
ltibia  2.245260954 -1.383567572 15.09102249
lfoot  0.8112012744 -22.89978981 38.01638794
ltoes  -8.513935239 -18.16484124 -115.6497786
336
root  34.8465957 36.50809761 -14.84276178 8.621578217 -6.718537331 3.646800756
lowerback  -8.542350769 -1.445590138 -0.9362196922
upperback  -4.170000076 -1.383700013 -2.992919922
thorax  0.4213530123 -0.5227100253 -2.682869911
lowerneck  -12.57479954 -7.881629944 -6.622960091
upperneck  20.92410088 -10.7482996 7.931790352
head  9.474010468 -4.457429886 2.537989855
lclavicle  0 -4.497500157e-015 -2.743230041e-014
lhumerus  -49.36999893 29.69149971 63.57310104
lradius  0.007069340441 -6.507048965e-006 30.79787064
lwrist  4.824992743e-007 -3.790274832e-007 -27.67720032
lhand  -4.405300586e-031 -36.72040176 -10.72439957
lfingers  90 7.125020027 -90
lthumb  94.74225044 -25.56571091 100.8814038
rclavicle  0 -4.497500157e-015 -2.743230041e-014
rhumerus  -60.08169937 -29.54170036 -45.74850082
rradius  -5.16745672e-007 2.214343908e-008 92.81220245
rwrist  -2.867388866e-005 0.0111028729 -174.8699951
rhand  -1.775242907e-031 5.986219883 -7.881830215
rfingers  -90 -7.125020027 -90
rthumb  -84.88329923 -8.341505645 -58.31643225
rfemur  -12.88545036 16.05805588 12.53145885
rtibia  -1.101463318 -1.368822455 21.18655777
rfoot  0.3309612572 -22.79081154 -34.6603775
rtoes  4.099939364 19.59211694 -102.066185
lfemur  -8.328186989 -16.55908394 -20.50473976
ltibia  2.245974541 -1.408404231 15.08511353
lfoot  0.8127781749 -22.8378334 38.04639435
ltoes  -8.506763157 -18.16811184 -115.6267749
337
root  34.85014608 36.5088155 -14.84109323 8.643019676 -6.783943176 3.640100002
lowerback  -8.521089554 -1.432770014 -0.9272280335
upperback  -4.173685074 -1.369969964 -2.98187995
thorax  0.4130330086 -0.5167310238 -2.67482996
lowerneck  -12.66650009 -7.784639835 -6.584489822
upperneck  21.07419968 -10.61489964 7.917540073
head  9.529569626 -4.384059906 2.543390036
lclavicle  0 -4.497500157e-015 -2.743230041e-014
lhumerus  -49.34320068 29.68300056 63.61980057
lradius  0.007069340441 -6.507048965e-006 30.79260063
lwrist  4.824992743e-007 -3.790274832e-007 -27.63489914
lhand  -4.405300586e-031 -36.72040176 -10.72439957
lfingers  90 7.125020027 -90
lthumb  94.74225044 -25.56571091 100.8814038
rclavicle  0 -4.497500157e-015 -2.743230041e-014
rhumerus  -59.68069839 -29.54540253 -46.52610016
rradius  -5.16745672e-007 2.214343908e-008 91.14569855
rwrist  -2.867388866e-005 0.0111028729 -173.5169983
rhand  -1.775242907e-031 5.986219883 -7.881830215
rfingers  -90 -7.125020027 -90
rthumb  -84.88329923 -8.341505645 -58.31643225
rfemur  -12.8947258 16.06445503 12.51019478
rtibia  -1.08611536 -1.412153721 21.14738464
rfoot  0.3478907347 -22.87031555 -34.61060333
rtoes  4.099939364 19.59211694 -102.066185
lfemur  -8.396616936 -16.5601387 -20.48544121
ltibia  2.199985027 -1.434988499 15.16318035
lfoot  0.8142445683 -22.82403755 38.05873871
ltoes  -8.506763157 -18.16811184 -115.6267749
